<svg xmlns="http://www.w3.org/2000/svg" xmlns:xlink="http://www.w3.org/1999/xlink" viewBox="0,0,256,256" width="48px" height="48px" fill-rule="nonzero"><g fill="none" fill-rule="nonzero" stroke="none" stroke-width="none" stroke-linecap="none" stroke-linejoin="none" stroke-miterlimit="10" stroke-dasharray="" stroke-dashoffset="0" font-family="none" font-weight="none" font-size="none" text-anchor="none" style="mix-blend-mode: normal"><g transform="scale(5.33333,5.33333)"><path d="M40.1,44h-24.2c-2.1,0 -3.9,-1.7 -3.9,-3.9v-24.2c0,-2.1 1.7,-3.9 3.9,-3.9h24.2c2.1,0 3.9,1.7 3.9,3.9v24.2c0,2.2 -1.7,3.9 -3.9,3.9z" fill="#aeafae" stroke="none" stroke-width="1" stroke-linecap="butt" stroke-linejoin="miter"></path><path d="M40.5,33.4v3.1c0,2.2 -1.8,4 -4,4h-25c-2.2,0 -4,-1.8 -4,-4v-15.7" fill="none" stroke="#18193f" stroke-width="3" stroke-linecap="round" stroke-linejoin="round"></path><path d="M7.5,14.5v-3c0,-2.2 1.8,-4 4,-4h25c2.2,0 4,1.8 4,4v16.5" fill="none" stroke="#18193f" stroke-width="3" stroke-linecap="round" stroke-linejoin="round"></path><path d="M32.5,27.9v-11c0,-1.2 -1.1,-2.2 -2.3,-2l-9,1.4c-1,0.2 -1.7,1 -1.7,2v12.6" fill="none" stroke="#18193f" stroke-width="3" stroke-linecap="round" stroke-linejoin="round"></path><ellipse cx="16.3" cy="30.9" rx="3.3" ry="2.9" fill="none" stroke="#18193f" stroke-width="3" stroke-linecap="round" stroke-linejoin="round"></ellipse><ellipse cx="29.3" cy="27.9" rx="3.3" ry="2.9" fill="none" stroke="#18193f" stroke-width="3" stroke-linecap="round" stroke-linejoin="round"></ellipse><path d="M32.5,19.5l-8.7,1.3" fill="none" stroke="#18193f" stroke-width="3" stroke-linecap="round" stroke-linejoin="round"></path></g></g></svg>